<svg width="337" height="110" viewBox="0 0 337 110" fill="none" xmlns="http://www.w3.org/2000/svg">
<path d="M32.892 90.464C27.524 90.464 22.8067 89.61 18.74 87.902C14.6733 86.1127 11.298 83.6727 8.614 80.582C5.93 77.4913 3.89667 73.872 2.514 69.724C1.21267 65.4947 0.562 60.9807 0.562 56.182C0.562 51.7087 1.25333 47.5607 2.636 43.738C4.01867 39.834 6.09267 36.4587 8.858 33.612C11.6233 30.7653 14.9987 28.5287 18.984 26.902C22.9693 25.2753 27.6053 24.462 32.892 24.462C37.772 24.462 42.0013 25.072 45.58 26.292C49.1587 27.512 52.0867 29.1387 54.364 31.172C56.7227 33.2053 58.4307 35.564 59.488 38.248C60.6267 40.932 61.196 43.7787 61.196 46.788C61.196 48.9027 60.464 50.5293 59 51.668C57.536 52.7253 55.5433 53.254 53.022 53.254C51.3953 53.254 50.0127 52.9693 48.874 52.4C47.7353 51.7493 46.922 50.7733 46.434 49.472C45.702 47.6013 45.0513 45.9747 44.482 44.592C43.9127 43.2093 43.14 42.0707 42.164 41.176C41.2693 40.2 40.0493 39.5087 38.504 39.102C36.9587 38.614 34.8847 38.37 32.282 38.37C27.646 38.37 23.9453 39.8747 21.18 42.884C18.4147 45.812 17.032 50.6513 17.032 57.402C17.032 63.258 18.4553 67.9753 21.302 71.554C24.1487 75.1327 28.2153 76.922 33.502 76.922C36.0233 76.922 38.0973 76.678 39.724 76.19C41.3507 75.702 42.6927 75.092 43.75 74.36C44.8887 73.628 45.7833 72.8553 46.434 72.042C47.166 71.1473 47.898 70.334 48.63 69.602C49.362 68.87 50.1753 68.26 51.07 67.772C52.046 67.284 53.266 67.04 54.73 67.04C56.3567 67.04 57.78 67.5687 59 68.626C60.22 69.6833 60.83 71.2693 60.83 73.384C60.83 74.9293 60.342 76.678 59.366 78.63C58.39 80.582 56.804 82.4527 54.608 84.242C52.412 85.95 49.5247 87.414 45.946 88.634C42.3673 89.854 38.016 90.464 32.892 90.464ZM126.953 73.384C126.953 74.9293 126.424 76.678 125.367 78.63C124.391 80.582 122.764 82.4527 120.487 84.242C118.291 85.95 115.404 87.414 111.825 88.634C108.246 89.854 103.895 90.464 98.771 90.464C93.891 90.464 89.499 89.6913 85.595 88.146C81.7724 86.5193 78.4784 84.242 75.713 81.314C73.029 78.3047 70.955 74.726 69.491 70.578C68.027 66.3487 67.295 61.6313 67.295 56.426C67.295 51.79 67.9864 47.52 69.369 43.616C70.7517 39.6307 72.785 36.2553 75.469 33.49C78.153 30.6433 81.447 28.4473 85.351 26.902C89.3364 25.2753 93.8504 24.462 98.8931 24.462C108.49 24.462 115.851 26.7393 120.975 31.294C126.18 35.7673 128.783 42.1927 128.783 50.57C128.783 54.23 128.173 56.6293 126.953 57.768C125.814 58.8253 124.066 59.354 121.707 59.354C121.138 59.354 119.918 59.354 118.047 59.354C116.258 59.354 114.143 59.354 111.703 59.354C109.344 59.354 106.782 59.354 104.017 59.354C101.333 59.2727 98.771 59.232 96.331 59.232C93.9724 59.232 91.8984 59.232 90.109 59.232C88.401 59.232 87.303 59.232 86.815 59.232C85.4324 59.232 84.5784 59.5167 84.253 60.086C84.009 60.6553 83.887 61.428 83.887 62.404C83.887 66.552 85.3104 70.0087 88.157 72.774C91.085 75.5393 94.867 76.922 99.503 76.922C103.326 76.922 106.172 76.434 108.043 75.458C109.914 74.4007 111.418 73.262 112.557 72.042C113.696 70.7407 114.794 69.602 115.851 68.626C116.99 67.5687 118.657 67.04 120.853 67.04C122.48 67.04 123.903 67.5687 125.123 68.626C126.343 69.6833 126.953 71.2693 126.953 73.384ZM110.971 50.57C112.11 50.57 112.882 50.3667 113.289 49.96C113.777 49.472 114.021 48.74 114.021 47.764C114.021 46.6253 113.736 45.446 113.167 44.226C112.598 42.9247 111.703 41.786 110.483 40.81C109.344 39.7527 107.84 38.8987 105.969 38.248C104.18 37.516 101.984 37.15 99.381 37.15C96.697 37.15 94.379 37.516 92.427 38.248C90.5564 38.98 89.011 39.9153 87.791 41.054C86.6524 42.1113 85.7984 43.2907 85.229 44.592C84.6597 45.812 84.375 46.9507 84.375 48.008C84.375 48.9027 84.5377 49.5533 84.863 49.96C85.1884 50.3667 85.9204 50.57 87.059 50.57H110.971ZM155.225 19.704C155.225 22.7947 155.184 25.0313 155.103 26.414C155.021 27.7153 154.981 28.8947 154.981 29.952C154.981 31.0907 155.062 31.8227 155.225 32.148C155.387 32.4733 155.713 32.636 156.201 32.636C156.689 32.636 157.258 32.1887 157.909 31.294C158.641 30.3993 159.698 29.4233 161.081 28.366C162.545 27.2273 164.456 26.2107 166.815 25.316C169.173 24.34 172.264 23.852 176.087 23.852C183.895 23.852 190.035 26.5767 194.509 32.026C199.063 37.4753 201.341 45.6087 201.341 56.426C201.341 61.306 200.731 65.82 199.511 69.968C198.291 74.0347 196.542 77.5727 194.265 80.582C192.069 83.51 189.344 85.7873 186.091 87.414C182.837 89.0407 179.177 89.854 175.111 89.854C170.312 89.854 166.611 89.2847 164.009 88.146C161.406 86.926 159.413 85.584 158.031 84.12C156.729 82.656 155.835 81.3547 155.347 80.216C154.859 78.996 154.33 78.386 153.761 78.386C153.191 78.386 152.825 78.752 152.663 79.484C152.581 80.1347 152.297 81.7207 151.809 84.242C151.402 86.1127 150.589 87.3733 149.369 88.024C148.23 88.6747 146.603 89 144.489 89C141.805 89 139.975 88.4713 138.999 87.414C138.023 86.3567 137.535 84.8113 137.535 82.778C137.535 77.9793 137.494 69.3987 137.413 57.036C137.413 44.6733 137.413 28.0407 137.413 7.138C137.413 4.77933 138.063 3.07133 139.365 2.01399C140.666 0.875326 143.065 0.305993 146.563 0.305993C148.515 0.305993 150.06 0.46866 151.199 0.793994C152.337 1.11933 153.191 1.56666 153.761 2.136C154.411 2.70533 154.818 3.43733 154.981 4.332C155.143 5.14533 155.225 6.08067 155.225 7.138V19.704ZM168.767 76.8C173.321 76.8 176.941 75.092 179.625 71.676C182.39 68.26 183.773 63.2987 183.773 56.792C183.773 50.204 182.471 45.6087 179.869 43.006C177.347 40.4033 173.891 39.102 169.499 39.102C167.303 39.102 165.269 39.4273 163.399 40.078C161.609 40.6473 160.023 41.664 158.641 43.128C157.339 44.592 156.282 46.5033 155.469 48.862C154.737 51.2207 154.371 54.1487 154.371 57.646C154.371 63.6647 155.672 68.382 158.275 71.798C160.959 75.1327 164.456 76.8 168.767 76.8ZM227.543 19.704C227.543 22.7947 227.502 25.0313 227.421 26.414C227.34 27.7153 227.299 28.8947 227.299 29.952C227.299 31.0907 227.38 31.8227 227.543 32.148C227.706 32.4733 228.031 32.636 228.519 32.636C229.007 32.636 229.576 32.1887 230.227 31.294C230.959 30.3993 232.016 29.4233 233.399 28.366C234.863 27.2273 236.774 26.2107 239.133 25.316C241.492 24.34 244.582 23.852 248.405 23.852C256.213 23.852 262.354 26.5767 266.827 32.026C271.382 37.4753 273.659 45.6087 273.659 56.426C273.659 61.306 273.049 65.82 271.829 69.968C270.609 74.0347 268.86 77.5727 266.583 80.582C264.387 83.51 261.662 85.7873 258.409 87.414C255.156 89.0407 251.496 89.854 247.429 89.854C242.63 89.854 238.93 89.2847 236.327 88.146C233.724 86.926 231.732 85.584 230.349 84.12C229.048 82.656 228.153 81.3547 227.665 80.216C227.177 78.996 226.648 78.386 226.079 78.386C225.51 78.386 225.144 78.752 224.981 79.484C224.9 80.1347 224.615 81.7207 224.127 84.242C223.72 86.1127 222.907 87.3733 221.687 88.024C220.548 88.6747 218.922 89 216.807 89C214.123 89 212.293 88.4713 211.317 87.414C210.341 86.3567 209.853 84.8113 209.853 82.778C209.853 77.9793 209.812 69.3987 209.731 57.036C209.731 44.6733 209.731 28.0407 209.731 7.138C209.731 4.77933 210.382 3.07133 211.683 2.01399C212.984 0.875326 215.384 0.305993 218.881 0.305993C220.833 0.305993 222.378 0.46866 223.517 0.793994C224.656 1.11933 225.51 1.56666 226.079 2.136C226.73 2.70533 227.136 3.43733 227.299 4.332C227.462 5.14533 227.543 6.08067 227.543 7.138V19.704ZM241.085 76.8C245.64 76.8 249.259 75.092 251.943 71.676C254.708 68.26 256.091 63.2987 256.091 56.792C256.091 50.204 254.79 45.6087 252.187 43.006C249.666 40.4033 246.209 39.102 241.817 39.102C239.621 39.102 237.588 39.4273 235.717 40.078C233.928 40.6473 232.342 41.664 230.959 43.128C229.658 44.592 228.6 46.5033 227.787 48.862C227.055 51.2207 226.689 54.1487 226.689 57.646C226.689 63.6647 227.99 68.382 230.593 71.798C233.277 75.1327 236.774 76.8 241.085 76.8ZM316.575 92.294C314.705 97.906 312.265 102.135 309.255 104.982C306.246 107.91 301.976 109.374 296.445 109.374C292.704 109.374 290.142 108.683 288.759 107.3C287.377 105.917 286.685 104.169 286.685 102.054C286.685 100.102 287.173 98.5567 288.149 97.418C289.125 96.2793 290.508 95.71 292.297 95.71C293.192 95.71 294.046 95.71 294.859 95.71C295.754 95.7913 296.527 95.832 297.177 95.832C299.373 95.832 300.878 95.3847 301.691 94.49C302.586 93.6767 303.033 92.782 303.033 91.806C303.033 91.074 302.83 90.5453 302.423 90.22C302.098 89.976 301.651 89.6507 301.081 89.244C300.512 88.9187 299.861 88.39 299.129 87.658C298.479 86.926 297.828 85.7467 297.177 84.12C295.225 79.24 293.517 74.9293 292.053 71.188C290.589 67.4467 289.247 63.99 288.027 60.818C286.807 57.5647 285.669 54.474 284.611 51.546C283.554 48.618 282.456 45.568 281.317 42.396C280.911 41.176 280.504 39.9967 280.097 38.858C279.691 37.638 279.284 36.4993 278.877 35.442C278.471 34.466 278.105 33.5307 277.779 32.636C277.535 31.66 277.413 30.7247 277.413 29.83C277.413 28.366 277.861 27.3493 278.755 26.78C279.65 26.1293 281.073 25.804 283.025 25.804H287.661C289.369 25.804 290.752 26.2513 291.809 27.146C292.948 27.9593 293.843 29.7487 294.493 32.514L306.327 70.456C306.734 71.5947 307.019 72.4487 307.181 73.018C307.344 73.5873 307.71 73.872 308.279 73.872C308.767 73.872 309.133 73.5467 309.377 72.896C309.621 72.2453 309.865 71.3507 310.109 70.212C310.923 66.6333 311.736 63.258 312.549 60.086C313.363 56.8327 314.176 53.6607 314.989 50.57C315.803 47.398 316.616 44.2667 317.429 41.176C318.324 38.004 319.259 34.71 320.235 31.294C320.886 29.1793 321.659 27.756 322.553 27.024C323.448 26.2107 324.831 25.804 326.701 25.804H332.435C334.143 25.804 335.323 26.17 335.973 26.902C336.624 27.5527 336.949 28.5693 336.949 29.952C336.949 30.8467 336.827 31.66 336.583 32.392C336.421 33.124 336.217 33.856 335.973 34.588L316.575 92.294Z" fill="black"/>
</svg>
