<svg width="886" height="571" viewBox="0 0 886 571" fill="none" xmlns="http://www.w3.org/2000/svg">
<g clip-path="url(#clip0_6_8)">
<path d="M134.889 238.696C133.832 249.266 130.527 257.855 124.976 264.461C119.424 271.067 113.608 275.56 107.528 277.938C101.448 280.316 96.1607 280.713 91.6666 279.127C87.1725 277.542 85.4542 273.578 86.5116 267.236C87.0403 263.008 88.0977 256.137 89.6839 246.624C91.2701 237.111 92.4597 227.466 93.2528 217.688C94.0458 207.911 94.3102 199.455 94.0458 192.32C93.7815 185.185 92.0631 181.882 88.8908 182.41C85.7185 182.939 82.1497 186.903 78.1843 194.302C74.2189 201.701 70.65 210.95 67.4777 222.048C64.3054 233.147 61.5296 245.171 59.1504 258.119C56.7712 271.067 55.5816 283.355 55.5816 294.982C55.5816 306.609 57.0355 316.651 59.9435 325.107C62.8514 333.563 68.0064 338.848 75.4085 340.962C88.0977 344.662 99.8617 342.152 110.7 333.431C121.539 324.711 131.188 314.009 139.648 301.324C148.107 288.64 155.245 275.824 161.061 262.876C166.877 249.927 170.578 240.81 172.164 235.525C173.75 230.769 176.262 227.598 179.698 226.012C183.135 224.427 186.439 223.898 189.612 224.427C192.784 224.955 195.428 226.673 197.543 229.58C199.657 232.486 200.186 236.318 199.129 241.075C198.071 244.246 196.221 250.059 193.577 258.515C190.934 266.971 187.233 276.352 182.474 286.658C177.716 296.964 171.9 307.666 165.026 318.765C158.153 329.864 150.09 339.905 140.837 348.89C131.585 357.875 121.01 365.142 109.114 370.691C97.2181 376.24 83.868 378.751 69.0639 378.222C50.03 377.165 35.2259 370.823 24.6515 359.196C14.0771 347.569 6.93944 333.299 3.23841 316.387C-0.462621 299.475 -0.99134 281.373 1.65225 262.083C4.29585 242.792 9.18649 224.823 16.3242 208.175C23.4619 191.527 32.3179 177.654 42.8923 166.555C53.4667 155.456 65.3628 149.907 78.5808 149.907C98.6721 149.907 113.608 158.76 123.39 176.465C133.171 194.17 137.004 214.913 134.889 238.696ZM303.815 236.318C299.585 242.132 294.298 246.888 287.953 250.588C281.609 254.287 274.735 257.326 267.333 259.704C259.931 262.083 252.397 263.8 244.731 264.857C237.064 265.914 230.323 266.707 224.507 267.236C222.921 278.334 221.996 289.169 221.731 299.739C221.467 310.309 221.996 319.822 223.318 328.278C224.639 336.734 226.754 343.869 229.662 349.683C232.57 355.496 236.668 359.196 241.955 360.781C248.828 362.895 256.23 361.706 264.161 357.214C272.092 352.722 279.758 346.512 287.16 338.584C294.562 330.656 301.7 321.408 308.573 310.837C315.447 300.267 321.527 290.094 326.814 280.316C332.101 270.539 336.595 261.554 340.297 253.362C343.998 245.171 346.377 239.225 347.434 235.525C349.02 230.769 351.532 227.598 354.968 226.012C358.405 224.427 361.71 223.898 364.882 224.427C368.054 224.955 370.698 226.673 372.813 229.58C374.928 232.486 375.456 236.318 374.399 241.075C373.341 244.246 371.491 250.456 368.847 259.704C366.204 268.953 362.371 279.391 357.348 291.018C352.325 302.646 346.245 314.669 339.107 327.089C331.969 339.509 323.378 350.872 313.332 361.178C303.286 371.484 291.787 380.072 278.833 386.942C265.879 393.813 251.472 397.248 235.61 397.248C216.576 397.248 201.772 390.642 191.198 377.429C180.624 364.217 173.486 347.569 169.785 327.485C166.084 307.402 165.423 285.866 167.802 262.876C170.181 239.885 174.94 218.349 182.077 198.266C189.215 178.182 198.203 161.534 209.042 148.322C219.881 135.109 231.909 128.503 245.127 128.503C257.816 128.503 269.052 132.863 278.833 141.583C288.614 150.304 296.149 160.477 301.436 172.104C306.723 183.732 309.763 195.623 310.556 207.779C311.349 219.934 309.102 229.447 303.815 236.318ZM254.644 165.762C250.943 167.348 246.978 174.086 242.748 185.978C238.518 197.869 234.553 212.271 230.852 229.183C236.668 229.183 242.484 228.523 248.299 227.201C254.115 225.88 258.345 223.105 260.989 218.877C263.104 215.706 264.425 211.082 264.954 205.004C265.483 198.926 265.351 192.716 264.558 186.374C263.765 180.032 262.443 174.747 260.592 170.519C258.742 166.291 256.759 164.705 254.644 165.762ZM357.744 33.3714C357.744 20.6873 361.181 11.8348 368.054 6.81397C374.928 1.79315 382.33 -0.453006 390.26 0.0755009C398.191 0.604008 405.197 3.51081 411.277 8.79587C417.357 14.0809 419.604 20.9515 418.018 29.4076C417.489 32.0502 416.696 37.9958 415.639 47.2447C414.581 56.4936 413.524 68.1207 412.467 82.1262C411.409 96.1316 410.087 111.723 408.501 128.899C406.915 146.076 405.329 163.913 403.743 182.41C408.501 177.125 414.053 172.897 420.397 169.726C426.742 166.555 434.408 164.97 443.397 164.97C458.729 164.97 471.154 169.99 480.671 180.032C490.188 190.074 497.062 202.758 501.291 218.085C505.521 233.411 506.975 249.795 505.653 267.236C504.331 284.676 500.498 301.06 494.154 316.387C487.809 331.714 478.821 344.398 467.189 354.439C455.557 364.481 441.81 369.502 425.949 369.502C412.202 369.502 401.099 364.745 392.64 355.232V378.222C392.111 385.621 388.806 391.303 382.726 395.266C376.646 399.23 370.037 401.344 362.899 401.609C355.762 401.873 349.417 400.287 343.865 396.852C338.314 393.417 335.802 387.735 336.331 379.808C337.389 366.595 338.71 349.551 340.297 328.675C341.883 307.799 343.469 285.469 345.055 261.686C346.641 237.904 348.227 213.724 349.813 189.149C351.4 164.573 352.721 141.715 353.779 120.575C354.836 99.4348 355.762 81.0691 356.555 65.4782C357.348 49.8872 357.744 39.185 357.744 33.3714ZM397.398 275.956C396.869 279.127 396.473 282.43 396.209 285.866C395.944 289.301 395.812 292.868 395.812 296.568C396.869 307.138 399.116 315.99 402.553 323.125C405.99 330.26 411.409 334.356 418.811 335.413C423.57 336.47 428.064 333.827 432.294 327.485C436.523 321.143 440.092 312.952 443 302.91C445.908 292.868 448.155 281.77 449.741 269.614C451.327 257.458 452.253 245.963 452.517 235.129C452.781 224.294 452.121 215.178 450.534 207.779C448.948 200.38 446.569 196.152 443.397 195.095C437.581 193.509 432.161 195.095 427.139 199.851C422.116 204.608 417.622 211.082 413.656 219.274C409.691 227.466 406.254 236.714 403.346 247.02C400.438 257.326 398.456 266.971 397.398 275.956ZM548.083 33.3714C548.083 20.6873 551.52 11.8348 558.393 6.81397C565.266 1.79315 572.668 -0.453006 580.599 0.0755009C588.53 0.604008 595.535 3.51081 601.616 8.79587C607.696 14.0809 609.943 20.9515 608.357 29.4076C607.828 32.0502 607.035 37.9958 605.978 47.2447C604.92 56.4936 603.863 68.1207 602.805 82.1262C601.748 96.1316 600.426 111.723 598.84 128.899C597.254 146.076 595.668 163.913 594.081 182.41C598.84 177.125 604.391 172.897 610.736 169.726C617.081 166.555 624.747 164.97 633.735 164.97C649.068 164.97 661.493 169.99 671.01 180.032C680.527 190.074 687.4 202.758 691.63 218.085C695.86 233.411 697.314 249.795 695.992 267.236C694.67 284.676 690.837 301.06 684.492 316.387C678.148 331.714 669.159 344.398 657.528 354.439C645.896 364.481 632.149 369.502 616.288 369.502C602.541 369.502 591.438 364.745 582.978 355.232V378.222C582.45 385.621 579.145 391.303 573.065 395.266C566.985 399.23 560.376 401.344 553.238 401.609C546.1 401.873 539.756 400.287 534.204 396.852C528.653 393.417 526.141 387.735 526.67 379.808C527.727 366.595 529.049 349.551 530.635 328.675C532.221 307.799 533.808 285.469 535.394 261.686C536.98 237.904 538.566 213.724 540.152 189.149C541.738 164.573 543.06 141.715 544.118 120.575C545.175 99.4348 546.1 81.0691 546.893 65.4782C547.686 49.8872 548.083 39.185 548.083 33.3714ZM587.737 275.956C587.208 279.127 586.812 282.43 586.547 285.866C586.283 289.301 586.151 292.868 586.151 296.568C587.208 307.138 589.455 315.99 592.892 323.125C596.328 330.26 601.748 334.356 609.15 335.413C613.908 336.47 618.403 333.827 622.632 327.485C626.862 321.143 630.431 312.952 633.339 302.91C636.247 292.868 638.494 281.77 640.08 269.614C641.666 257.458 642.591 245.963 642.856 235.129C643.12 224.294 642.459 215.178 640.873 207.779C639.287 200.38 636.908 196.152 633.735 195.095C627.919 193.509 622.5 195.095 617.477 199.851C612.454 204.608 607.96 211.082 603.995 219.274C600.03 227.466 596.593 236.714 593.685 247.02C590.777 257.326 588.794 266.971 587.737 275.956ZM874.831 470.975C874.831 481.545 871.394 491.058 864.521 499.514C857.648 507.97 850.113 514.313 841.918 518.541C833.723 522.769 826.321 524.354 819.712 523.297C813.103 522.24 810.327 517.219 811.385 508.235C811.914 501.364 812.574 491.587 813.368 478.903C814.161 466.219 815.086 451.949 816.143 436.094C817.201 420.238 818.126 403.194 818.919 384.961C819.712 366.727 820.637 348.361 821.695 329.864C816.408 344.133 809.006 356.289 799.489 366.331C794.201 371.616 787.989 374.523 780.851 375.051C773.714 375.58 766.84 374.258 760.231 371.087C753.622 367.916 747.674 363.292 742.387 357.214C737.1 351.136 733.663 344.133 732.077 336.206C730.491 328.278 729.433 317.708 728.905 304.495C728.376 291.283 728.112 277.013 728.112 261.686C728.112 246.36 728.376 230.637 728.905 214.517C729.433 198.398 729.698 182.939 729.698 168.141C730.227 158.628 733.795 151.625 740.404 147.133C747.013 142.64 754.283 139.998 762.214 139.205C770.145 138.412 777.415 139.469 784.024 142.376C790.633 145.283 793.673 149.643 793.144 155.456C792.087 172.369 790.765 190.602 789.179 210.157C787.592 229.712 786.139 248.077 784.817 265.254C783.495 282.43 782.966 296.964 783.231 308.856C783.495 320.747 785.213 327.221 788.386 328.278C791.558 329.335 794.598 327.221 797.506 321.936C800.414 316.651 803.322 309.516 806.23 300.532C809.138 291.547 811.914 281.638 814.557 270.803C817.201 259.969 819.448 249.399 821.298 239.093C823.149 228.787 824.735 219.538 826.057 211.346C827.379 203.154 828.039 197.209 828.039 193.509C834.384 190.338 838.482 190.338 840.332 193.509C842.183 196.68 843.901 202.494 845.487 210.95C846.016 213.064 846.148 218.217 845.884 226.409C845.619 234.6 844.562 244.378 842.711 255.741C840.861 267.104 838.217 279.391 834.781 292.604C831.344 305.817 826.982 318.237 821.695 329.864C823.281 300.796 824.603 273.181 825.66 247.02C826.718 220.859 827.511 200.115 828.039 184.789C828.039 178.447 831.212 173.558 837.556 170.123C843.901 166.687 850.774 164.837 858.176 164.573C865.578 164.309 872.187 165.762 878.003 168.933C883.819 172.104 886.463 176.861 885.934 183.203C884.348 194.302 883.026 208.571 881.969 226.012C880.911 243.453 879.986 262.083 879.193 281.902C878.4 301.721 877.739 321.804 877.21 342.152C876.682 362.499 876.285 381.393 876.021 398.834C875.756 416.275 875.492 431.469 875.228 444.418C874.963 457.366 874.831 466.218 874.831 470.975Z" fill="white"/>
</g>
<defs>
<clipPath id="clip0_6_8">
<rect width="886" height="571" fill="white"/>
</clipPath>
</defs>
</svg>
