<svg width="886" height="634" viewBox="0 0 886 634" fill="none" xmlns="http://www.w3.org/2000/svg">
<g clip-path="url(#clip0_13_3)">
<path d="M134.889 238.696C133.832 249.266 130.527 257.855 124.976 264.461C119.424 271.067 113.608 275.56 107.528 277.938C101.448 280.316 96.1607 280.713 91.6666 279.127C87.1725 277.542 85.4542 273.578 86.5116 267.236C87.0403 263.008 88.0977 256.137 89.6839 246.624C91.2701 237.111 92.4597 227.466 93.2528 217.688C94.0458 207.911 94.3102 199.455 94.0458 192.32C93.7815 185.185 92.0631 181.882 88.8908 182.41C85.7185 182.939 82.1497 186.903 78.1843 194.302C74.2189 201.701 70.65 210.95 67.4777 222.048C64.3054 233.147 61.5296 245.171 59.1504 258.119C56.7712 271.067 55.5816 283.355 55.5816 294.982C55.5816 306.609 57.0355 316.651 59.9435 325.107C62.8514 333.563 68.0064 338.848 75.4085 340.962C88.0977 344.662 99.8617 342.152 110.7 333.431C121.539 324.711 131.188 314.009 139.648 301.324C148.107 288.64 155.245 275.824 161.061 262.876C166.877 249.927 170.578 240.81 172.164 235.525C173.75 230.769 176.262 227.598 179.698 226.012C183.135 224.427 186.439 223.898 189.612 224.427C192.784 224.955 195.428 226.673 197.543 229.58C199.657 232.486 200.186 236.318 199.129 241.075C198.071 244.246 196.221 250.059 193.577 258.515C190.934 266.971 187.233 276.352 182.474 286.658C177.716 296.964 171.9 307.666 165.026 318.765C158.153 329.864 150.09 339.905 140.837 348.89C131.585 357.875 121.01 365.142 109.114 370.691C97.2181 376.24 83.868 378.751 69.0639 378.222C50.03 377.165 35.2259 370.823 24.6515 359.196C14.0771 347.569 6.93944 333.299 3.23841 316.387C-0.462621 299.475 -0.99134 281.373 1.65225 262.083C4.29585 242.792 9.18649 224.823 16.3242 208.175C23.4619 191.527 32.3179 177.654 42.8923 166.555C53.4667 155.456 65.3628 149.907 78.5808 149.907C98.6721 149.907 113.608 158.76 123.39 176.465C133.171 194.17 137.004 214.913 134.889 238.696ZM303.815 236.318C299.585 242.132 294.298 246.888 287.953 250.588C281.609 254.287 274.735 257.326 267.333 259.704C259.931 262.083 252.397 263.8 244.731 264.857C237.064 265.914 230.323 266.707 224.507 267.236C222.921 278.334 221.996 289.169 221.731 299.739C221.467 310.309 221.996 319.822 223.318 328.278C224.639 336.734 226.754 343.869 229.662 349.683C232.57 355.496 236.668 359.196 241.955 360.781C248.828 362.895 256.23 361.706 264.161 357.214C272.092 352.722 279.758 346.512 287.16 338.584C294.562 330.656 301.7 321.408 308.573 310.837C315.447 300.267 321.527 290.094 326.814 280.316C332.101 270.539 336.595 261.554 340.297 253.362C343.998 245.171 346.377 239.225 347.434 235.525C349.02 230.769 351.532 227.598 354.968 226.012C358.405 224.427 361.71 223.898 364.882 224.427C368.054 224.955 370.698 226.673 372.813 229.58C374.928 232.486 375.456 236.318 374.399 241.075C373.341 244.246 371.491 250.456 368.847 259.704C366.204 268.953 362.371 279.391 357.348 291.018C352.325 302.646 346.245 314.669 339.107 327.089C331.969 339.509 323.378 350.872 313.332 361.178C303.286 371.484 291.787 380.072 278.833 386.942C265.879 393.813 251.472 397.248 235.61 397.248C216.576 397.248 201.772 390.642 191.198 377.429C180.624 364.217 173.486 347.569 169.785 327.485C166.084 307.402 165.423 285.866 167.802 262.876C170.181 239.885 174.94 218.349 182.077 198.266C189.215 178.182 198.203 161.534 209.042 148.322C219.881 135.109 231.909 128.503 245.127 128.503C257.816 128.503 269.052 132.863 278.833 141.583C288.614 150.304 296.149 160.477 301.436 172.104C306.723 183.732 309.763 195.623 310.556 207.779C311.349 219.934 309.102 229.447 303.815 236.318ZM254.644 165.762C250.943 167.348 246.978 174.086 242.748 185.978C238.518 197.869 234.553 212.271 230.852 229.183C236.668 229.183 242.484 228.523 248.299 227.201C254.115 225.88 258.345 223.105 260.989 218.877C263.104 215.706 264.425 211.082 264.954 205.004C265.483 198.926 265.351 192.716 264.558 186.374C263.765 180.032 262.443 174.747 260.592 170.519C258.742 166.291 256.759 164.705 254.644 165.762ZM357.744 33.3714C357.744 20.6873 361.181 11.8348 368.054 6.81397C374.928 1.79315 382.33 -0.453006 390.26 0.0755009C398.191 0.604008 405.197 3.51081 411.277 8.79587C417.357 14.0809 419.604 20.9515 418.018 29.4076C417.489 32.0502 416.696 37.9958 415.639 47.2447C414.581 56.4936 413.524 68.1207 412.467 82.1262C411.409 96.1316 410.087 111.723 408.501 128.899C406.915 146.076 405.329 163.913 403.743 182.41C408.501 177.125 414.053 172.897 420.397 169.726C426.742 166.555 434.408 164.97 443.397 164.97C458.729 164.97 471.154 169.99 480.671 180.032C490.188 190.074 497.062 202.758 501.291 218.085C505.521 233.411 506.975 249.795 505.653 267.236C504.331 284.676 500.498 301.06 494.154 316.387C487.809 331.714 478.821 344.398 467.189 354.439C455.557 364.481 441.81 369.502 425.949 369.502C412.202 369.502 401.099 364.745 392.64 355.232V378.222C392.111 385.621 388.806 391.303 382.726 395.266C376.646 399.23 370.037 401.344 362.899 401.609C355.762 401.873 349.417 400.287 343.865 396.852C338.314 393.417 335.802 387.735 336.331 379.808C337.389 366.595 338.71 349.551 340.297 328.675C341.883 307.799 343.469 285.469 345.055 261.686C346.641 237.904 348.227 213.724 349.813 189.149C351.4 164.573 352.721 141.715 353.779 120.575C354.836 99.4348 355.762 81.0691 356.555 65.4782C357.348 49.8872 357.744 39.185 357.744 33.3714ZM397.398 275.956C396.869 279.127 396.473 282.43 396.209 285.866C395.944 289.301 395.812 292.868 395.812 296.568C396.869 307.138 399.116 315.99 402.553 323.125C405.99 330.26 411.409 334.356 418.811 335.413C423.57 336.47 428.064 333.827 432.294 327.485C436.523 321.143 440.092 312.952 443 302.91C445.908 292.868 448.155 281.77 449.741 269.614C451.327 257.458 452.253 245.963 452.517 235.129C452.781 224.294 452.121 215.178 450.534 207.779C448.948 200.38 446.569 196.152 443.397 195.095C437.581 193.509 432.161 195.095 427.139 199.851C422.116 204.608 417.622 211.082 413.656 219.274C409.691 227.466 406.254 236.714 403.346 247.02C400.438 257.326 398.456 266.971 397.398 275.956ZM548.083 33.3714C548.083 20.6873 551.52 11.8348 558.393 6.81397C565.266 1.79315 572.668 -0.453006 580.599 0.0755009C588.53 0.604008 595.535 3.51081 601.616 8.79587C607.696 14.0809 609.943 20.9515 608.357 29.4076C607.828 32.0502 607.035 37.9958 605.978 47.2447C604.92 56.4936 603.863 68.1207 602.805 82.1262C601.748 96.1316 600.426 111.723 598.84 128.899C597.254 146.076 595.668 163.913 594.081 182.41C598.84 177.125 604.391 172.897 610.736 169.726C617.081 166.555 624.747 164.97 633.735 164.97C649.068 164.97 661.493 169.99 671.01 180.032C680.527 190.074 687.4 202.758 691.63 218.085C695.86 233.411 697.314 249.795 695.992 267.236C694.67 284.676 690.837 301.06 684.492 316.387C678.148 331.714 669.159 344.398 657.528 354.439C645.896 364.481 632.149 369.502 616.288 369.502C602.541 369.502 591.438 364.745 582.978 355.232V378.222C582.45 385.621 579.145 391.303 573.065 395.266C566.985 399.23 560.376 401.344 553.238 401.609C546.1 401.873 539.756 400.287 534.204 396.852C528.653 393.417 526.141 387.735 526.67 379.808C527.727 366.595 529.049 349.551 530.635 328.675C532.221 307.799 533.808 285.469 535.394 261.686C536.98 237.904 538.566 213.724 540.152 189.149C541.738 164.573 543.06 141.715 544.118 120.575C545.175 99.4348 546.1 81.0691 546.893 65.4782C547.686 49.8872 548.083 39.185 548.083 33.3714ZM587.737 275.956C587.208 279.127 586.812 282.43 586.547 285.866C586.283 289.301 586.151 292.868 586.151 296.568C587.208 307.138 589.455 315.99 592.892 323.125C596.328 330.26 601.748 334.356 609.15 335.413C613.908 336.47 618.403 333.827 622.632 327.485C626.862 321.143 630.431 312.952 633.339 302.91C636.247 292.868 638.494 281.77 640.08 269.614C641.666 257.458 642.591 245.963 642.856 235.129C643.12 224.294 642.459 215.178 640.873 207.779C639.287 200.38 636.908 196.152 633.735 195.095C627.919 193.509 622.5 195.095 617.477 199.851C612.454 204.608 607.96 211.082 603.995 219.274C600.03 227.466 596.593 236.714 593.685 247.02C590.777 257.326 588.794 266.971 587.737 275.956ZM874.831 470.975C874.831 481.545 871.394 491.058 864.521 499.514C857.648 507.97 850.113 514.313 841.918 518.541C833.723 522.769 826.321 524.354 819.712 523.297C813.103 522.24 810.327 517.219 811.385 508.235C811.914 501.364 812.574 491.587 813.368 478.903C814.161 466.219 815.086 451.949 816.143 436.094C817.201 420.238 818.126 403.194 818.919 384.961C819.712 366.727 820.637 348.361 821.695 329.864C816.408 344.133 809.006 356.289 799.489 366.331C794.201 371.616 787.989 374.523 780.851 375.051C773.714 375.58 766.84 374.258 760.231 371.087C753.622 367.916 747.674 363.292 742.387 357.214C737.1 351.136 733.663 344.133 732.077 336.206C730.491 328.278 729.433 317.708 728.905 304.495C728.376 291.283 728.112 277.013 728.112 261.686C728.112 246.36 728.376 230.637 728.905 214.517C729.433 198.398 729.698 182.939 729.698 168.141C730.227 158.628 733.795 151.625 740.404 147.133C747.013 142.64 754.283 139.998 762.214 139.205C770.145 138.412 777.415 139.469 784.024 142.376C790.633 145.283 793.673 149.643 793.144 155.456C792.087 172.369 790.765 190.602 789.179 210.157C787.592 229.712 786.139 248.077 784.817 265.254C783.495 282.43 782.966 296.964 783.231 308.856C783.495 320.747 785.213 327.221 788.386 328.278C791.558 329.335 794.598 327.221 797.506 321.936C800.414 316.651 803.322 309.516 806.23 300.532C809.138 291.547 811.914 281.638 814.557 270.803C817.201 259.969 819.448 249.399 821.298 239.093C823.149 228.787 824.735 219.538 826.057 211.346C827.379 203.154 828.039 197.209 828.039 193.509C834.384 190.338 838.482 190.338 840.332 193.509C842.183 196.68 843.901 202.494 845.487 210.95C846.016 213.064 846.148 218.217 845.884 226.409C845.619 234.6 844.562 244.378 842.711 255.741C840.861 267.104 838.217 279.391 834.781 292.604C831.344 305.817 826.982 318.237 821.695 329.864C823.281 300.796 824.603 273.181 825.66 247.02C826.718 220.859 827.511 200.115 828.039 184.789C828.039 178.447 831.212 173.558 837.556 170.123C843.901 166.687 850.774 164.837 858.176 164.573C865.578 164.309 872.187 165.762 878.003 168.933C883.819 172.104 886.463 176.861 885.934 183.203C884.348 194.302 883.026 208.571 881.969 226.012C880.911 243.453 879.986 262.083 879.193 281.902C878.4 301.721 877.739 321.804 877.21 342.152C876.682 362.499 876.285 381.393 876.021 398.834C875.756 416.275 875.492 431.469 875.228 444.418C874.963 457.366 874.831 466.218 874.831 470.975Z" fill="white"/>
</g>
<path d="M59.0781 621H55.4588L69.2159 583.182H72.9091L86.6662 621H83.0469L71.1918 587.669H70.9332L59.0781 621ZM61.6818 606.504H80.4432V609.607H61.6818V606.504ZM95.7514 583.182V621H92.4645V583.182H95.7514ZM107.736 583.182V621H104.449V583.182H107.736ZM142.23 592.636V595.499H128.695V592.636H142.23ZM132.923 585.841H136.229V613.595C136.229 614.777 136.432 615.706 136.838 616.384C137.244 617.048 137.774 617.522 138.426 617.805C139.079 618.076 139.774 618.212 140.513 618.212C140.944 618.212 141.313 618.187 141.621 618.138C141.929 618.076 142.199 618.015 142.433 617.953L143.135 620.926C142.815 621.049 142.421 621.16 141.953 621.259C141.485 621.369 140.907 621.425 140.217 621.425C139.011 621.425 137.848 621.16 136.727 620.631C135.619 620.101 134.708 619.313 133.994 618.267C133.28 617.221 132.923 615.922 132.923 614.371V585.841ZM160.858 621.591C158.211 621.591 155.921 620.975 153.988 619.744C152.056 618.501 150.56 616.784 149.501 614.592C148.455 612.389 147.931 609.853 147.931 606.984C147.931 604.128 148.455 601.592 149.501 599.376C150.56 597.148 152.019 595.406 153.877 594.151C155.749 592.883 157.909 592.249 160.359 592.249C161.898 592.249 163.381 592.532 164.809 593.098C166.237 593.652 167.518 594.508 168.65 595.665C169.795 596.81 170.7 598.256 171.365 600.004C172.029 601.74 172.362 603.796 172.362 606.172V607.797H150.203V604.898H169.001C169.001 603.076 168.632 601.438 167.893 599.986C167.167 598.521 166.151 597.364 164.846 596.514C163.554 595.665 162.058 595.24 160.359 595.24C158.562 595.24 156.98 595.72 155.613 596.68C154.247 597.641 153.176 598.909 152.4 600.484C151.637 602.06 151.249 603.784 151.237 605.655V607.391C151.237 609.643 151.625 611.613 152.4 613.3C153.188 614.974 154.302 616.273 155.743 617.196C157.183 618.119 158.888 618.581 160.858 618.581C162.199 618.581 163.375 618.372 164.385 617.953C165.406 617.535 166.262 616.974 166.951 616.273C167.653 615.559 168.182 614.777 168.539 613.928L171.66 614.943C171.229 616.137 170.521 617.239 169.537 618.249C168.564 619.258 167.345 620.071 165.88 620.686C164.428 621.289 162.753 621.591 160.858 621.591ZM190.685 621.591C188.149 621.591 185.939 620.957 184.055 619.689C182.184 618.421 180.732 616.685 179.697 614.482C178.663 612.278 178.146 609.767 178.146 606.947C178.146 604.104 178.67 601.574 179.716 599.358C180.775 597.142 182.24 595.406 184.111 594.151C185.982 592.883 188.155 592.249 190.629 592.249C192.525 592.249 194.242 592.618 195.781 593.357C197.32 594.083 198.588 595.111 199.585 596.44C200.595 597.758 201.229 599.296 201.487 601.057H198.163C197.819 599.456 196.988 598.09 195.67 596.957C194.366 595.812 192.704 595.24 190.685 595.24C188.875 595.24 187.275 595.732 185.884 596.717C184.492 597.69 183.403 599.05 182.615 600.798C181.839 602.534 181.452 604.547 181.452 606.837C181.452 609.139 181.833 611.176 182.597 612.949C183.36 614.709 184.431 616.088 185.81 617.085C187.201 618.082 188.826 618.581 190.685 618.581C191.94 618.581 193.085 618.347 194.119 617.879C195.166 617.399 196.04 616.722 196.741 615.848C197.455 614.974 197.936 613.934 198.182 612.727H201.506C201.259 614.438 200.65 615.965 199.678 617.307C198.717 618.636 197.468 619.683 195.929 620.446C194.402 621.209 192.654 621.591 190.685 621.591ZM211.837 603.273V621H208.55V583.182H211.837V597.087H212.133C212.798 595.622 213.826 594.452 215.217 593.578C216.62 592.704 218.393 592.267 220.535 592.267C222.455 592.267 224.142 592.661 225.594 593.449C227.047 594.237 228.18 595.4 228.992 596.939C229.805 598.478 230.211 600.374 230.211 602.626V621H226.906V602.83C226.906 600.491 226.253 598.65 224.948 597.308C223.656 595.954 221.907 595.277 219.704 595.277C218.19 595.277 216.842 595.597 215.66 596.237C214.478 596.877 213.542 597.801 212.853 599.007C212.176 600.201 211.837 601.623 211.837 603.273ZM264.959 621.591C262.312 621.591 260.023 620.975 258.09 619.744C256.157 618.501 254.661 616.784 253.603 614.592C252.556 612.389 252.033 609.853 252.033 606.984C252.033 604.128 252.556 601.592 253.603 599.376C254.661 597.148 256.12 595.406 257.979 594.151C259.85 592.883 262.011 592.249 264.461 592.249C265.999 592.249 267.483 592.532 268.911 593.098C270.339 593.652 271.619 594.508 272.752 595.665C273.897 596.81 274.801 598.256 275.466 600.004C276.131 601.74 276.463 603.796 276.463 606.172V607.797H254.304V604.898H273.103C273.103 603.076 272.733 601.438 271.995 599.986C271.268 598.521 270.253 597.364 268.948 596.514C267.655 595.665 266.159 595.24 264.461 595.24C262.663 595.24 261.081 595.72 259.715 596.68C258.348 597.641 257.277 598.909 256.502 600.484C255.739 602.06 255.351 603.784 255.338 605.655V607.391C255.338 609.643 255.726 611.613 256.502 613.3C257.29 614.974 258.404 616.273 259.844 617.196C261.284 618.119 262.989 618.581 264.959 618.581C266.301 618.581 267.477 618.372 268.486 617.953C269.508 617.535 270.364 616.974 271.053 616.273C271.755 615.559 272.284 614.777 272.641 613.928L275.762 614.943C275.331 616.137 274.623 617.239 273.638 618.249C272.666 619.258 271.447 620.071 269.982 620.686C268.529 621.289 266.855 621.591 264.959 621.591ZM304.799 592.636L294.44 621H290.931L280.572 592.636H284.136L292.556 616.661H292.815L301.235 592.636H304.799ZM321.682 621.591C319.035 621.591 316.745 620.975 314.812 619.744C312.88 618.501 311.384 616.784 310.325 614.592C309.279 612.389 308.756 609.853 308.756 606.984C308.756 604.128 309.279 601.592 310.325 599.376C311.384 597.148 312.843 595.406 314.702 594.151C316.573 592.883 318.733 592.249 321.183 592.249C322.722 592.249 324.205 592.532 325.634 593.098C327.062 593.652 328.342 594.508 329.474 595.665C330.619 596.81 331.524 598.256 332.189 600.004C332.854 601.74 333.186 603.796 333.186 606.172V607.797H311.027V604.898H329.825C329.825 603.076 329.456 601.438 328.717 599.986C327.991 598.521 326.975 597.364 325.67 596.514C324.378 595.665 322.882 595.24 321.183 595.24C319.386 595.24 317.804 595.72 316.438 596.68C315.071 597.641 314 598.909 313.224 600.484C312.461 602.06 312.073 603.784 312.061 605.655V607.391C312.061 609.643 312.449 611.613 313.224 613.3C314.012 614.974 315.126 616.273 316.567 617.196C318.007 618.119 319.712 618.581 321.682 618.581C323.024 618.581 324.199 618.372 325.209 617.953C326.231 617.535 327.086 616.974 327.776 616.273C328.477 615.559 329.007 614.777 329.364 613.928L332.484 614.943C332.054 616.137 331.346 617.239 330.361 618.249C329.388 619.258 328.17 620.071 326.705 620.686C325.252 621.289 323.578 621.591 321.682 621.591ZM343.716 603.273V621H340.429V592.636H343.624V597.087H343.919C344.584 595.634 345.618 594.471 347.022 593.597C348.437 592.71 350.185 592.267 352.266 592.267C354.174 592.267 355.848 592.667 357.289 593.467C358.741 594.255 359.868 595.419 360.668 596.957C361.48 598.496 361.887 600.386 361.887 602.626V621H358.6V602.83C358.6 600.503 357.947 598.662 356.642 597.308C355.35 595.954 353.614 595.277 351.435 595.277C349.945 595.277 348.622 595.597 347.465 596.237C346.308 596.877 345.391 597.801 344.713 599.007C344.049 600.201 343.716 601.623 343.716 603.273ZM381.714 592.636V595.499H368.179V592.636H381.714ZM372.408 585.841H375.713V613.595C375.713 614.777 375.916 615.706 376.322 616.384C376.729 617.048 377.258 617.522 377.911 617.805C378.563 618.076 379.259 618.212 379.997 618.212C380.428 618.212 380.797 618.187 381.105 618.138C381.413 618.076 381.684 618.015 381.918 617.953L382.619 620.926C382.299 621.049 381.905 621.16 381.438 621.259C380.97 621.369 380.391 621.425 379.702 621.425C378.495 621.425 377.332 621.16 376.212 620.631C375.104 620.101 374.193 619.313 373.479 618.267C372.765 617.221 372.408 615.922 372.408 614.371V585.841ZM407.728 598.859L404.718 599.709C404.423 598.859 404.004 598.09 403.463 597.401C402.921 596.711 402.213 596.163 401.339 595.757C400.477 595.351 399.406 595.148 398.126 595.148C396.206 595.148 394.63 595.603 393.399 596.514C392.168 597.425 391.552 598.601 391.552 600.041C391.552 601.26 391.971 602.251 392.808 603.014C393.657 603.765 394.962 604.362 396.723 604.805L401.007 605.858C403.383 606.437 405.162 607.354 406.343 608.609C407.538 609.865 408.135 611.441 408.135 613.337C408.135 614.937 407.691 616.359 406.805 617.602C405.919 618.846 404.681 619.824 403.093 620.538C401.518 621.24 399.69 621.591 397.609 621.591C394.839 621.591 392.556 620.969 390.758 619.726C388.961 618.47 387.81 616.661 387.305 614.297L390.463 613.521C390.869 615.208 391.663 616.482 392.845 617.344C394.039 618.205 395.609 618.636 397.554 618.636C399.733 618.636 401.475 618.15 402.779 617.178C404.084 616.193 404.737 614.962 404.737 613.484C404.737 612.339 404.355 611.379 403.592 610.604C402.829 609.816 401.672 609.237 400.12 608.868L395.485 607.76C393.023 607.169 391.201 606.233 390.02 604.953C388.838 603.673 388.247 602.085 388.247 600.189C388.247 598.625 388.672 597.253 389.521 596.071C390.37 594.877 391.54 593.941 393.029 593.264C394.519 592.587 396.218 592.249 398.126 592.249C400.724 592.249 402.798 592.839 404.349 594.021C405.913 595.191 407.039 596.804 407.728 598.859ZM429.994 621V592.636H433.299V621H429.994ZM431.674 587.761C430.997 587.761 430.418 587.534 429.938 587.078C429.458 586.61 429.218 586.05 429.218 585.398C429.218 584.745 429.458 584.191 429.938 583.736C430.418 583.268 430.997 583.034 431.674 583.034C432.351 583.034 432.93 583.268 433.41 583.736C433.89 584.191 434.13 584.745 434.13 585.398C434.13 586.05 433.89 586.61 433.41 587.078C432.93 587.534 432.351 587.761 431.674 587.761ZM445.279 603.273V621H441.992V592.636H445.186V597.087H445.482C446.147 595.634 447.181 594.471 448.584 593.597C450 592.71 451.748 592.267 453.828 592.267C455.737 592.267 457.411 592.667 458.851 593.467C460.304 594.255 461.43 595.419 462.23 596.957C463.043 598.496 463.449 600.386 463.449 602.626V621H460.162V602.83C460.162 600.503 459.51 598.662 458.205 597.308C456.912 595.954 455.176 595.277 452.998 595.277C451.508 595.277 450.185 595.597 449.027 596.237C447.87 596.877 446.953 597.801 446.276 599.007C445.611 600.201 445.279 601.623 445.279 603.273ZM497.754 621.591C495.304 621.591 493.138 620.969 491.254 619.726C489.383 618.482 487.918 616.765 486.859 614.574C485.801 612.37 485.271 609.828 485.271 606.947C485.271 604.042 485.801 601.488 486.859 599.284C487.918 597.068 489.383 595.345 491.254 594.114C493.138 592.87 495.304 592.249 497.754 592.249C500.204 592.249 502.365 592.87 504.236 594.114C506.107 595.357 507.572 597.08 508.631 599.284C509.702 601.488 510.237 604.042 510.237 606.947C510.237 609.828 509.708 612.37 508.649 614.574C507.59 616.765 506.119 618.482 504.236 619.726C502.365 620.969 500.204 621.591 497.754 621.591ZM497.754 618.581C499.724 618.581 501.392 618.052 502.759 616.993C504.125 615.934 505.159 614.525 505.861 612.764C506.575 611.004 506.932 609.065 506.932 606.947C506.932 604.83 506.575 602.885 505.861 601.112C505.159 599.339 504.125 597.918 502.759 596.847C501.392 595.776 499.724 595.24 497.754 595.24C495.797 595.24 494.129 595.776 492.75 596.847C491.384 597.918 490.343 599.339 489.629 601.112C488.928 602.885 488.577 604.83 488.577 606.947C488.577 609.065 488.928 611.004 489.629 612.764C490.343 614.525 491.384 615.934 492.75 616.993C494.116 618.052 495.785 618.581 497.754 618.581ZM520.74 603.273V621H517.453V592.636H520.647V597.087H520.943C521.608 595.634 522.642 594.471 524.045 593.597C525.461 592.71 527.209 592.267 529.289 592.267C531.198 592.267 532.872 592.667 534.312 593.467C535.765 594.255 536.891 595.419 537.691 596.957C538.504 598.496 538.91 600.386 538.91 602.626V621H535.623V602.83C535.623 600.503 534.971 598.662 533.666 597.308C532.373 595.954 530.637 595.277 528.458 595.277C526.969 595.277 525.645 595.597 524.488 596.237C523.331 596.877 522.414 597.801 521.737 599.007C521.072 600.201 520.74 601.623 520.74 603.273ZM559.033 621.591C556.387 621.591 554.097 620.975 552.164 619.744C550.231 618.501 548.736 616.784 547.677 614.592C546.63 612.389 546.107 609.853 546.107 606.984C546.107 604.128 546.63 601.592 547.677 599.376C548.736 597.148 550.194 595.406 552.053 594.151C553.924 592.883 556.085 592.249 558.535 592.249C560.074 592.249 561.557 592.532 562.985 593.098C564.413 593.652 565.693 594.508 566.826 595.665C567.971 596.81 568.876 598.256 569.54 600.004C570.205 601.74 570.538 603.796 570.538 606.172V607.797H548.379V604.898H567.177C567.177 603.076 566.808 601.438 566.069 599.986C565.343 598.521 564.327 597.364 563.022 596.514C561.729 595.665 560.234 595.24 558.535 595.24C556.737 595.24 555.156 595.72 553.789 596.68C552.423 597.641 551.352 598.909 550.576 600.484C549.813 602.06 549.425 603.784 549.413 605.655V607.391C549.413 609.643 549.8 611.613 550.576 613.3C551.364 614.974 552.478 616.273 553.918 617.196C555.359 618.119 557.064 618.581 559.033 618.581C560.375 618.581 561.551 618.372 562.56 617.953C563.582 617.535 564.438 616.974 565.127 616.273C565.829 615.559 566.358 614.777 566.715 613.928L569.836 614.943C569.405 616.137 568.697 617.239 567.712 618.249C566.74 619.258 565.521 620.071 564.056 620.686C562.603 621.289 560.929 621.591 559.033 621.591ZM592.406 631.636V592.636H595.6V598.047H595.988C596.382 597.197 596.924 596.33 597.613 595.443C598.303 594.545 599.214 593.787 600.346 593.172C601.491 592.556 602.931 592.249 604.667 592.249C607.006 592.249 609.05 592.864 610.798 594.095C612.558 595.314 613.925 597.025 614.897 599.229C615.882 601.42 616.375 603.974 616.375 606.892C616.375 609.822 615.882 612.389 614.897 614.592C613.925 616.796 612.558 618.513 610.798 619.744C609.05 620.975 607.019 621.591 604.704 621.591C602.993 621.591 601.559 621.283 600.402 620.668C599.257 620.052 598.327 619.295 597.613 618.396C596.912 617.485 596.37 616.599 595.988 615.737H595.693V631.636H592.406ZM595.656 606.837C595.656 609.126 595.994 611.158 596.672 612.93C597.361 614.691 598.346 616.076 599.626 617.085C600.919 618.082 602.482 618.581 604.316 618.581C606.2 618.581 607.788 618.064 609.081 617.03C610.386 615.983 611.377 614.574 612.054 612.801C612.743 611.028 613.088 609.04 613.088 606.837C613.088 604.658 612.749 602.694 612.072 600.946C611.407 599.198 610.422 597.813 609.118 596.791C607.813 595.757 606.212 595.24 604.316 595.24C602.47 595.24 600.9 595.739 599.608 596.736C598.315 597.721 597.33 599.087 596.653 600.835C595.988 602.571 595.656 604.571 595.656 606.837ZM626.873 583.182V621H623.586V583.182H626.873ZM643.492 621.646C641.781 621.646 640.217 621.314 638.801 620.649C637.386 619.972 636.259 619 635.422 617.732C634.585 616.451 634.167 614.9 634.167 613.078C634.167 611.675 634.431 610.493 634.961 609.533C635.49 608.572 636.241 607.785 637.213 607.169C638.186 606.554 639.337 606.067 640.667 605.71C641.996 605.353 643.461 605.076 645.061 604.879C646.65 604.682 647.991 604.51 649.087 604.362C650.195 604.214 651.038 603.981 651.617 603.661C652.195 603.34 652.485 602.823 652.485 602.109V601.445C652.485 599.512 651.906 597.991 650.749 596.884C649.604 595.763 647.954 595.203 645.8 595.203C643.757 595.203 642.088 595.652 640.796 596.551C639.516 597.45 638.617 598.509 638.1 599.727L634.979 598.601C635.619 597.05 636.506 595.812 637.638 594.889C638.771 593.954 640.039 593.283 641.442 592.876C642.846 592.458 644.267 592.249 645.708 592.249C646.791 592.249 647.917 592.39 649.087 592.673C650.269 592.956 651.364 593.449 652.374 594.151C653.383 594.84 654.202 595.806 654.83 597.05C655.458 598.281 655.772 599.844 655.772 601.74V621H652.485V616.513H652.282C651.888 617.35 651.303 618.162 650.527 618.95C649.752 619.738 648.779 620.384 647.61 620.889C646.44 621.394 645.068 621.646 643.492 621.646ZM643.935 618.636C645.683 618.636 647.197 618.249 648.478 617.473C649.758 616.697 650.743 615.67 651.432 614.389C652.134 613.097 652.485 611.675 652.485 610.124V606.024C652.239 606.258 651.826 606.467 651.248 606.652C650.681 606.837 650.023 607.003 649.272 607.151C648.533 607.286 647.794 607.403 647.056 607.501C646.317 607.6 645.652 607.686 645.061 607.76C643.461 607.957 642.095 608.265 640.962 608.683C639.829 609.102 638.962 609.68 638.358 610.419C637.755 611.145 637.453 612.081 637.453 613.226C637.453 614.949 638.069 616.285 639.3 617.233C640.531 618.169 642.076 618.636 643.935 618.636ZM675.687 592.636V595.499H662.152V592.636H675.687ZM666.38 585.841H669.686V613.595C669.686 614.777 669.889 615.706 670.295 616.384C670.701 617.048 671.231 617.522 671.883 617.805C672.536 618.076 673.231 618.212 673.97 618.212C674.401 618.212 674.77 618.187 675.078 618.138C675.386 618.076 675.656 618.015 675.89 617.953L676.592 620.926C676.272 621.049 675.878 621.16 675.41 621.259C674.942 621.369 674.364 621.425 673.674 621.425C672.468 621.425 671.305 621.16 670.184 620.631C669.076 620.101 668.165 619.313 667.451 618.267C666.737 617.221 666.38 615.922 666.38 614.371V585.841ZM694.822 592.636V595.499H680.881V592.636H694.822ZM685.239 621V588.482C685.239 586.955 685.589 585.669 686.291 584.622C687.005 583.576 687.935 582.782 689.08 582.24C690.224 581.698 691.437 581.428 692.717 581.428C693.579 581.428 694.293 581.501 694.859 581.649C695.438 581.785 695.893 581.92 696.226 582.055L695.266 584.936C695.019 584.862 694.718 584.776 694.361 584.678C694.004 584.579 693.554 584.53 693.013 584.53C691.585 584.53 690.483 584.93 689.707 585.73C688.932 586.53 688.544 587.675 688.544 589.165L688.526 621H685.239ZM711.239 621.591C708.789 621.591 706.622 620.969 704.739 619.726C702.867 618.482 701.402 616.765 700.344 614.574C699.285 612.37 698.756 609.828 698.756 606.947C698.756 604.042 699.285 601.488 700.344 599.284C701.402 597.068 702.867 595.345 704.739 594.114C706.622 592.87 708.789 592.249 711.239 592.249C713.688 592.249 715.849 592.87 717.72 594.114C719.591 595.357 721.056 597.08 722.115 599.284C723.186 601.488 723.722 604.042 723.722 606.947C723.722 609.828 723.192 612.37 722.134 614.574C721.075 616.765 719.604 618.482 717.72 619.726C715.849 620.969 713.688 621.591 711.239 621.591ZM711.239 618.581C713.208 618.581 714.876 618.052 716.243 616.993C717.609 615.934 718.643 614.525 719.345 612.764C720.059 611.004 720.416 609.065 720.416 606.947C720.416 604.83 720.059 602.885 719.345 601.112C718.643 599.339 717.609 597.918 716.243 596.847C714.876 595.776 713.208 595.24 711.239 595.24C709.281 595.24 707.613 595.776 706.234 596.847C704.868 597.918 703.828 599.339 703.114 601.112C702.412 602.885 702.061 604.83 702.061 606.947C702.061 609.065 702.412 611.004 703.114 612.764C703.828 614.525 704.868 615.934 706.234 616.993C707.601 618.052 709.269 618.581 711.239 618.581ZM730.937 621V592.636H734.132V596.994H734.372C734.938 595.566 735.923 594.415 737.326 593.541C738.742 592.655 740.342 592.212 742.127 592.212C742.398 592.212 742.7 592.218 743.032 592.23C743.365 592.242 743.642 592.255 743.863 592.267V595.609C743.716 595.585 743.457 595.548 743.088 595.499C742.718 595.449 742.318 595.425 741.887 595.425C740.41 595.425 739.093 595.739 737.936 596.366C736.791 596.982 735.886 597.838 735.221 598.933C734.556 600.029 734.224 601.278 734.224 602.682V621H730.937ZM749.472 621V592.636H752.667V596.994H752.962C753.529 595.529 754.47 594.378 755.788 593.541C757.117 592.692 758.711 592.267 760.57 592.267C762.528 592.267 764.134 592.729 765.39 593.652C766.658 594.563 767.606 595.819 768.234 597.419H768.474C769.114 595.843 770.154 594.594 771.594 593.67C773.047 592.735 774.808 592.267 776.876 592.267C779.51 592.267 781.591 593.098 783.117 594.76C784.644 596.41 785.407 598.822 785.407 601.999V621H782.12V601.999C782.12 599.758 781.548 598.078 780.403 596.957C779.258 595.837 777.75 595.277 775.879 595.277C773.712 595.277 772.044 595.942 770.874 597.271C769.705 598.601 769.12 600.287 769.12 602.331V621H765.759V601.703C765.759 599.783 765.224 598.232 764.153 597.05C763.082 595.868 761.574 595.277 759.629 595.277C758.324 595.277 757.148 595.597 756.102 596.237C755.067 596.877 754.249 597.77 753.646 598.915C753.055 600.047 752.759 601.352 752.759 602.83V621H749.472ZM796.731 621.277C796.005 621.277 795.377 621.018 794.848 620.501C794.331 619.972 794.072 619.344 794.072 618.618C794.072 617.879 794.331 617.251 794.848 616.734C795.377 616.217 796.005 615.959 796.731 615.959C797.47 615.959 798.098 616.217 798.615 616.734C799.132 617.251 799.39 617.879 799.39 618.618C799.39 619.098 799.267 619.541 799.021 619.947C798.787 620.354 798.467 620.68 798.061 620.926C797.667 621.16 797.224 621.277 796.731 621.277ZM810.696 621.277C809.97 621.277 809.342 621.018 808.812 620.501C808.295 619.972 808.037 619.344 808.037 618.618C808.037 617.879 808.295 617.251 808.812 616.734C809.342 616.217 809.97 615.959 810.696 615.959C811.435 615.959 812.062 616.217 812.58 616.734C813.097 617.251 813.355 617.879 813.355 618.618C813.355 619.098 813.232 619.541 812.986 619.947C812.752 620.354 812.432 620.68 812.026 620.926C811.632 621.16 811.188 621.277 810.696 621.277ZM824.661 621.277C823.935 621.277 823.307 621.018 822.777 620.501C822.26 619.972 822.002 619.344 822.002 618.618C822.002 617.879 822.26 617.251 822.777 616.734C823.307 616.217 823.935 615.959 824.661 615.959C825.4 615.959 826.027 616.217 826.544 616.734C827.061 617.251 827.32 617.879 827.32 618.618C827.32 619.098 827.197 619.541 826.951 619.947C826.717 620.354 826.397 620.68 825.99 620.926C825.596 621.16 825.153 621.277 824.661 621.277Z" fill="#F3F3F3"/>
<defs>
<clipPath id="clip0_13_3">
<rect width="886" height="571" fill="white"/>
</clipPath>
</defs>
</svg>
